<svg xmlns="http://www.w3.org/2000/svg" width="32" height="32" viewBox="0 0 32 32">
  <g id="EAU_logo" data-name="EAU logo" transform="translate(-193)">
    <rect id="Rectangle_4" data-name="Rectangle 4" width="32" height="32" transform="translate(193)" fill="#109d12"/>
    <path id="Path_1" data-name="Path 1" d="M299,263.955a1.558,1.558,0,0,1,1.6,1.663,2.042,2.042,0,0,1-2.159,2.053,2.634,2.634,0,0,1-2.455-2.927,4.714,4.714,0,0,1,4.827-4.832c3.333.029,5.313,2.963,5.242,6.823s-1.587,8.637-2.469,8.634c-.046-.013-.413.059-.4-.278a14.814,14.814,0,0,0,1.027-5.475c-.064-2.811-1.231-7.959-4.832-8.014a2.646,2.646,0,0,0-2.517,2.754c0,.57.08.821.288.826C297.434,265.206,297.489,264.014,299,263.955Z" transform="translate(-98.74 -249.192)" fill="#f9d609"/>
    <path id="Path_2" data-name="Path 2" d="M308.49,264.989a1.952,1.952,0,0,0-2.005,2.087c0,1.815,1.373,2.354,2.61,2.379a3.171,3.171,0,0,0,3.165-3.476,6.313,6.313,0,0,0-6.042-6.063c-4.172.036-6.493,3.8-6.4,8.648s1.924,10.675,3.027,10.671c.058-.016.411.049.4-.375a25.447,25.447,0,0,1-1.083-6.726c-.1-5.6,2.775-10.116,5.858-10.1a3.317,3.317,0,0,1,3.151,3.456c0,.715-.1,1.023-.36,1.037C310.3,266.544,310.381,265.064,308.49,264.989Z" transform="translate(-91.677 -252.949)" fill="#fff"/>
  </g>
</svg>
