<svg width="4" height="7" viewBox="0 0 4 7" fill="none" xmlns="http://www.w3.org/2000/svg">
<path d="M3.69315 2.79156L0.848715 0.126557C0.751478 0.039802 0.624254 -0.00542819 0.494199 0.000520486C0.364144 0.00646917 0.24156 0.0631255 0.152613 0.158396C0.0636656 0.253667 0.0154011 0.380005 0.0181205 0.510445C0.02084 0.640884 0.0743283 0.765092 0.167169 0.856557L2.98167 3.49156L0.167169 6.12656C0.117456 6.17091 0.0771017 6.22478 0.0484814 6.285C0.0198611 6.34522 0.00355368 6.41057 0.000518918 6.4772C-0.00251585 6.54383 0.00778349 6.6104 0.0308107 6.67298C0.053838 6.73557 0.0891276 6.7929 0.134601 6.8416C0.180075 6.89031 0.234814 6.92941 0.295595 6.95659C0.356375 6.98378 0.421969 6.9985 0.488514 6.99989C0.555059 7.00128 0.621209 6.98932 0.68307 6.9647C0.744931 6.94009 0.801251 6.90332 0.848715 6.85656L3.69265 4.19356C3.78954 4.10421 3.86688 3.99569 3.91978 3.87485C3.97269 3.75402 4 3.62351 4 3.49156C4 3.35961 3.97269 3.22909 3.91978 3.10826C3.86688 2.98743 3.78954 2.87891 3.69265 2.78956L3.69315 2.79156Z" fill="currentColor"/>
</svg>
