<svg width="24" height="24" viewBox="0 0 24 24" fill="none" xmlns="http://www.w3.org/2000/svg">
<path d="M19.0001 6.40995L17.5901 4.99995L12.0001 10.59L6.41008 4.99995L5.00008 6.40995L10.5901 12L5.00008 17.59L6.41008 19L12.0001 13.41L17.5901 19L19.0001 17.59L13.4101 12L19.0001 6.40995Z" fill="currentColor"/>
<path fill-rule="evenodd" clip-rule="evenodd" d="M6.41008 4.29285L12.0001 9.88285L17.5901 4.29285L19.7072 6.40995L14.1172 12L19.7072 17.59L17.5901 19.7071L12.0001 14.1171L6.41008 19.7071L4.29297 17.59L9.88297 12L4.29297 6.40995L6.41008 4.29285ZM5.70718 6.40995L11.2972 12L5.70718 17.59L6.41008 18.2928L12.0001 12.7028L17.5901 18.2928L18.293 17.59L12.703 12L18.293 6.40995L17.5901 5.70706L12.0001 11.2971L6.41008 5.70706L5.70718 6.40995Z" fill="currentColor"/>
</svg>
